<svg width="172" height="34" viewBox="0 0 172 34" fill="none" xmlns="http://www.w3.org/2000/svg">
<g clip-path="url(#clip0_111_4)">
<path fill-rule="evenodd" clip-rule="evenodd" d="M21.9678 9.93251C20.57 8.99853 18.9266 8.5 17.2455 8.5V0C20.6077 0 23.8945 0.997033 26.6902 2.86502C29.4858 4.733 31.6647 7.38804 32.9514 10.4944C34.2381 13.6007 34.5748 17.0189 33.9188 20.3165C33.2629 23.6142 31.6438 26.6433 29.2663 29.0208C26.8888 31.3983 23.8597 33.0174 20.562 33.6733C17.2644 34.3293 13.8462 33.9926 10.7398 32.706C7.63351 31.4192 4.97848 29.2403 3.1105 26.4447C1.24252 23.649 0.245483 20.3623 0.245483 17H8.74548C8.74548 18.6811 9.24401 20.3245 10.178 21.7223C11.112 23.1202 12.4395 24.2096 13.9927 24.853C15.5458 25.4963 17.2549 25.6646 18.9037 25.3366C20.5526 25.0087 22.0671 24.1992 23.2559 23.0104C24.4446 21.8216 25.2542 20.3071 25.5821 18.6583C25.9101 17.0094 25.7418 15.3003 25.0985 13.7472C24.4551 12.194 23.3657 10.8665 21.9678 9.93251Z" fill="#FF3624"/>
<path fill-rule="evenodd" clip-rule="evenodd" d="M8.74548 4.49219e-06C8.74548 1.11624 8.52563 2.22155 8.09846 3.25282C7.67129 4.28408 7.04519 5.22111 6.25589 6.01041C5.4666 6.79971 4.52956 7.42582 3.49829 7.85298C2.46702 8.28014 1.36172 8.5 0.245484 8.5L0.245483 17C2.47795 17 4.68856 16.5603 6.75111 15.706C8.81365 14.8516 10.6877 13.5994 12.2663 12.0208C13.8449 10.4423 15.0971 8.56817 15.9514 6.50562C16.8058 4.44308 17.2455 2.23247 17.2455 0L8.74548 4.49219e-06Z" fill="#FF3624"/>
<path d="M107.022 12.2861H102.897V25.3866H107.022V12.2861Z" fill="#1E1E1E"/>
<path d="M103.356 9.83278C103.787 10.2641 104.326 10.4797 104.973 10.4797C105.62 10.4797 106.15 10.2641 106.564 9.83278C106.977 9.38356 107.184 8.8444 107.184 8.21544C107.184 7.56853 106.977 7.02939 106.564 6.59812C106.15 6.16681 105.62 5.95117 104.973 5.95117C104.326 5.95117 103.787 6.16681 103.356 6.59812C102.943 7.02939 102.736 7.56853 102.736 8.21544C102.736 8.8444 102.943 9.38356 103.356 9.83278Z" fill="#1E1E1E"/>
<path d="M43.7283 25.3872V6.35645H47.9603V21.6673H56.3975V25.3872H43.7283Z" fill="#1E1E1E"/>
<path fill-rule="evenodd" clip-rule="evenodd" d="M64.0188 25.6813C62.671 25.6813 61.4491 25.3848 60.3528 24.7918C59.2746 24.1808 58.421 23.3542 57.792 22.3118C57.1631 21.2695 56.8486 20.1015 56.8486 18.8076C56.8486 17.5137 57.1631 16.3547 57.792 15.3303C58.421 14.306 59.2746 13.4973 60.3528 12.9043C61.4311 12.2933 62.6531 11.9878 64.0188 11.9878C65.3846 11.9878 66.6065 12.2844 67.6848 12.8773C68.763 13.4704 69.6166 14.2881 70.2456 15.3303C70.8746 16.3547 71.1891 17.5137 71.1891 18.8076C71.1891 20.1015 70.8746 21.2695 70.2456 22.3118C69.6166 23.3542 68.763 24.1808 67.6848 24.7918C66.6065 25.3848 65.3846 25.6813 64.0188 25.6813ZM64.0188 21.9345C64.6118 21.9345 65.133 21.8087 65.5823 21.5571C66.0315 21.2876 66.373 20.9192 66.6065 20.4519C66.8581 19.9667 66.9839 19.4186 66.9839 18.8076C66.9839 18.1966 66.8581 17.6665 66.6065 17.2172C66.3549 16.75 66.0046 16.3906 65.5553 16.139C65.124 15.8694 64.6118 15.7347 64.0188 15.7347C63.4438 15.7347 62.9317 15.8694 62.4823 16.139C62.0331 16.3906 61.6827 16.75 61.4311 17.2172C61.1795 17.6845 61.0538 18.2236 61.0538 18.8345C61.0538 19.4276 61.1795 19.9667 61.4311 20.4519C61.6827 20.9192 62.0331 21.2876 62.4823 21.5571C62.9317 21.8087 63.4438 21.9345 64.0188 21.9345Z" fill="#1E1E1E"/>
<path fill-rule="evenodd" clip-rule="evenodd" d="M74.4554 30.5053C75.5515 31.0085 76.8185 31.2601 78.2562 31.2601C79.6578 31.2601 80.9068 30.9815 82.003 30.4244C83.0992 29.8673 83.9617 29.0947 84.5907 28.1063C85.2196 27.1179 85.5345 25.9498 85.5345 24.602V12.2833H81.4908V13.1635C81.19 12.9103 80.8485 12.6978 80.4665 12.5259C79.7656 12.1844 78.9659 12.0137 78.0675 12.0137C76.8634 12.0137 75.7941 12.3012 74.8597 12.8763C73.9252 13.4333 73.1885 14.2061 72.6493 15.1945C72.1101 16.1649 71.8407 17.2611 71.8407 18.4831C71.8407 19.6871 72.1101 20.7833 72.6493 21.7717C73.1885 22.7601 73.9252 23.5418 74.8597 24.1168C75.7941 24.6918 76.8634 24.9794 78.0675 24.9794C78.948 24.9794 79.7477 24.8087 80.4665 24.4673C80.8147 24.3019 81.1292 24.107 81.4099 23.8825V24.7099C81.4099 25.6263 81.1134 26.3362 80.5204 26.8394C79.9454 27.3426 79.1457 27.5941 78.1213 27.5941C77.2947 27.5941 76.5849 27.4504 75.9918 27.1628C75.4168 26.8753 74.8956 26.453 74.4284 25.8959L71.8946 28.4297C72.5235 29.3283 73.3772 30.0202 74.4554 30.5053ZM80.3317 20.936C79.9183 21.1876 79.4242 21.3134 78.8491 21.3134C78.2741 21.3134 77.7709 21.1876 77.3396 20.936C76.9262 20.6844 76.6028 20.343 76.3692 19.9117C76.1356 19.4625 76.0188 18.9862 76.0188 18.4831C76.0188 17.944 76.1356 17.4588 76.3692 17.0275C76.6028 16.5962 76.9353 16.2547 77.3665 16.0031C77.7978 15.7515 78.292 15.6257 78.8491 15.6257C79.4242 15.6257 79.9183 15.7515 80.3317 16.0031C80.763 16.2547 81.0864 16.5962 81.3021 17.0275C81.5357 17.4588 81.6525 17.944 81.6525 18.4831C81.6525 19.0222 81.5357 19.5074 81.3021 19.9386C81.0864 20.352 80.763 20.6844 80.3317 20.936Z" fill="#1E1E1E"/>
<path fill-rule="evenodd" clip-rule="evenodd" d="M94.2138 25.6813C92.8657 25.6813 91.6434 25.3848 90.5478 24.7918C89.4691 24.1808 88.6157 23.3542 87.9867 22.3118C87.3577 21.2695 87.0432 20.1015 87.0432 18.8076C87.0432 17.5137 87.3577 16.3547 87.9867 15.3303C88.6157 14.306 89.4691 13.4973 90.5478 12.9043C91.6256 12.2933 92.8479 11.9878 94.2138 11.9878C95.5789 11.9878 96.8012 12.2844 97.879 12.8773C98.9577 13.4704 99.8111 14.2881 100.44 15.3303C101.069 16.3547 101.384 17.5137 101.384 18.8076C101.384 20.1015 101.069 21.2695 100.44 22.3118C99.8111 23.3542 98.9577 24.1808 97.879 24.7918C96.8012 25.3848 95.5789 25.6813 94.2138 25.6813ZM94.2138 21.9345C94.8063 21.9345 95.3273 21.8087 95.777 21.5571C96.2258 21.2876 96.5675 20.9192 96.8012 20.4519C97.0528 19.9667 97.1786 19.4186 97.1786 18.8076C97.1786 18.1966 97.0528 17.6665 96.8012 17.2172C96.5496 16.75 96.1994 16.3906 95.7498 16.139C95.3188 15.8694 94.8063 15.7347 94.2138 15.7347C93.6384 15.7347 93.1258 15.8694 92.677 16.139C92.2274 16.3906 91.8772 16.75 91.6256 17.2172C91.374 17.6845 91.2482 18.2236 91.2482 18.8345C91.2482 19.4276 91.374 19.9667 91.6256 20.4519C91.8772 20.9192 92.2274 21.2876 92.677 21.5571C93.1258 21.8087 93.6384 21.9345 94.2138 21.9345Z" fill="#1E1E1E"/>
<path fill-rule="evenodd" clip-rule="evenodd" d="M116.934 25.6533C116.055 25.6533 115.245 25.4826 114.508 25.1412C114.121 24.9615 113.771 24.7469 113.458 24.4975V30.9097H109.387V12.2833H113.511V13.1874C113.811 12.9427 114.143 12.7312 114.508 12.5528C115.245 12.1934 116.055 12.0137 116.934 12.0137C118.175 12.0137 119.271 12.3102 120.223 12.9033C121.194 13.4962 121.949 14.3049 122.487 15.3293C123.045 16.3536 123.323 17.5217 123.323 18.8335C123.323 20.1454 123.045 21.3134 122.487 22.3378C121.949 23.3621 121.194 24.1707 120.223 24.7638C119.271 25.3568 118.175 25.6533 116.934 25.6533ZM116.18 21.9334C116.773 21.9334 117.285 21.7986 117.716 21.5291C118.166 21.2595 118.516 20.8911 118.768 20.4239C119.019 19.9567 119.145 19.4265 119.145 18.8335C119.145 18.2225 119.019 17.6834 118.768 17.2162C118.516 16.7489 118.166 16.3896 117.716 16.138C117.285 15.8683 116.782 15.7336 116.207 15.7336C115.632 15.7336 115.12 15.8683 114.671 16.138C114.239 16.3896 113.898 16.7489 113.647 17.2162C113.395 17.6834 113.269 18.2225 113.269 18.8335C113.269 19.4265 113.386 19.9567 113.619 20.4239C113.871 20.8911 114.221 21.2595 114.671 21.5291C115.12 21.7986 115.623 21.9334 116.18 21.9334Z" fill="#1E1E1E"/>
<path d="M127.36 25.412C128.114 25.6097 128.878 25.7085 129.65 25.7085C131.286 25.7085 132.579 25.3312 133.532 24.5764C134.502 23.8217 134.988 22.8064 134.988 21.5304C134.988 20.7038 134.835 20.0388 134.529 19.5357C134.224 19.0146 133.829 18.6012 133.344 18.2957C132.858 17.9903 132.346 17.7476 131.807 17.5679C131.268 17.3882 130.755 17.2355 130.271 17.1097C129.786 16.9839 129.39 16.8401 129.084 16.6784C128.779 16.5166 128.626 16.301 128.626 16.0314C128.626 15.7798 128.743 15.5911 128.976 15.4653C129.21 15.3216 129.56 15.2498 130.028 15.2498C130.513 15.2498 131.007 15.3485 131.51 15.5462C132.031 15.7439 132.499 16.0854 132.912 16.5706L135.257 14.1985C134.665 13.4437 133.892 12.8776 132.939 12.5003C132.005 12.1049 130.981 11.9072 129.866 11.9072C128.806 11.9072 127.881 12.0869 127.09 12.4463C126.299 12.8058 125.688 13.3 125.257 13.9289C124.826 14.5398 124.61 15.2677 124.61 16.1123C124.61 16.903 124.763 17.559 125.068 18.0801C125.373 18.5832 125.769 18.9786 126.254 19.2661C126.739 19.5537 127.252 19.7783 127.791 19.94C128.329 20.1017 128.842 20.2545 129.327 20.3983C129.812 20.5241 130.208 20.6768 130.513 20.8565C130.837 21.0183 130.998 21.2609 130.998 21.5843C130.998 21.8359 130.863 22.0335 130.594 22.1774C130.342 22.3211 129.974 22.393 129.489 22.393C128.788 22.393 128.141 22.2672 127.548 22.0156C126.955 21.7461 126.442 21.3777 126.012 20.9104L123.666 23.2825C124.116 23.7677 124.655 24.1991 125.284 24.5764C125.931 24.9358 126.623 25.2143 127.36 25.412Z" fill="#1E1E1E"/>
<path d="M142.508 25.6831C141.305 25.6831 140.235 25.4405 139.301 24.9553C138.384 24.4521 137.666 23.7692 137.145 22.9066C136.623 22.0261 136.363 21.0198 136.363 19.8876V12.2861H140.487V19.8337C140.487 20.2829 140.558 20.6693 140.703 20.9928C140.864 21.3163 141.098 21.5679 141.403 21.7476C141.709 21.9273 142.077 22.0171 142.508 22.0171C143.119 22.0171 143.605 21.8284 143.964 21.451C144.324 21.0557 144.503 20.5166 144.503 19.8337V12.2861H148.627V19.8607C148.627 21.0108 148.367 22.0261 147.845 22.9066C147.324 23.7692 146.606 24.4521 145.689 24.9553C144.773 25.4405 143.713 25.6831 142.508 25.6831Z" fill="#1E1E1E"/>
<path d="M154.802 12.2833H150.678V25.3837H154.802V17.7283C154.802 17.2791 154.892 16.9017 155.071 16.5962C155.269 16.2907 155.53 16.057 155.853 15.8954C156.177 15.7156 156.545 15.6257 156.958 15.6257C157.552 15.6257 158.046 15.8144 158.441 16.1918C158.855 16.5512 159.061 17.0634 159.061 17.7283V25.3837H163.185V17.7283C163.185 17.2791 163.276 16.9017 163.455 16.5962C163.653 16.2907 163.913 16.057 164.237 15.8954C164.56 15.7156 164.929 15.6257 165.342 15.6257C165.935 15.6257 166.429 15.8144 166.824 16.1918C167.237 16.5512 167.444 17.0634 167.444 17.7283V25.3837H171.569V17.2701C171.569 16.1739 171.335 15.2394 170.868 14.4667C170.418 13.6759 169.798 13.074 169.008 12.6607C168.235 12.2293 167.345 12.0137 166.339 12.0137C165.315 12.0137 164.389 12.2383 163.563 12.6876C163.026 12.9738 162.556 13.3432 162.154 13.7958C161.78 13.3224 161.324 12.9351 160.786 12.6337C160.068 12.2204 159.25 12.0137 158.334 12.0137C157.363 12.0137 156.492 12.2204 155.719 12.6337C155.382 12.8056 155.077 13.0116 154.802 13.2515V12.2833Z" fill="#1E1E1E"/>
</g>
<defs>
<clipPath id="clip0_111_4">
<rect width="171.7" height="34" fill="white" transform="translate(0.245483)"/>
</clipPath>
</defs>
</svg>
